<svg width="1150" height="606" viewBox="0 0 1150 606" fill="none" xmlns="http://www.w3.org/2000/svg">
<path d="M0 37C0 16.5655 16.5655 0 37 0H1113C1133.43 0 1150 16.5655 1150 37V464C1150 484.435 1133.43 501 1113 501C1047.86 501 986.833 501 928.625 501C895.794 501 963.592 542.028 958.931 566.985C957.851 572.768 951.594 575.566 945.741 576.157C881.537 582.645 747.127 501 713 501C497.777 501 301.244 501 37.0525 501C16.6179 501 0 484.435 0 464V37Z" fill="#FFB86C"/>
<path d="M4.76562 587H28.75C41.5234 587 48.2422 580.359 48.2812 571.375C48.2422 563.016 42.2266 557.938 35.8594 557.625V557.078C41.6797 555.789 46.0547 551.609 46.0156 544.969C46.0547 536.453 39.7266 530.438 27.2656 530.438H4.76562V587ZM16.4844 577.312V562.156H26.7188C32.5 562.156 36.1328 565.516 36.0938 570.281C36.1328 574.539 33.2031 577.352 26.4062 577.312H16.4844ZM16.4844 554.109V539.969H25.7812C31.1328 539.969 34.1797 542.742 34.1406 546.844C34.1797 551.375 30.4688 554.148 25.5469 554.109H16.4844ZM67.0312 530.438H55.4688V587H67.0312V530.438ZM73.9844 575.125C74.0234 583.523 80 587.82 88.125 587.781C94.4141 587.82 98.4766 585.047 100.547 581.141H100.859V587H111.797V558.406C111.836 548.172 103.086 544.031 93.8281 544.031C82.5781 544.031 76.1719 549.812 75.4688 557.156H86.4844C87.1094 554.266 89.5703 552.508 93.5156 552.469C97.8516 552.508 100.273 554.539 100.312 558.094V561.531C98.5156 561.609 92.8125 561.883 89.7656 562.078C81.6016 562.586 74.0234 565.672 73.9844 575.125ZM85.0781 574.812C85.0781 571.531 87.6172 569.617 91.6406 569.266C93.5938 569.109 98.5547 568.836 100.312 568.758V571.844C100.352 576.336 96.6797 579.773 91.4062 579.812C87.6953 579.773 85.0781 578.055 85.0781 574.812ZM132.188 562.469C132.188 556.883 135.586 553.641 140.469 553.641C145.312 553.641 148.125 556.727 148.125 562V587H159.688V559.969C159.688 550.008 153.867 544.031 145 544.031C138.555 544.031 134.297 547.039 132.344 552H131.875V530.438H120.625V587H132.188V562.469ZM179.688 530.438H166.328L183.75 558.719L166.016 587H179.531L191.25 567.547H191.641L203.359 587H216.953L199.297 558.719L216.562 530.438H203.281L191.641 549.891H191.25L179.688 530.438ZM223.359 587H263.828V577.312H239.688V577L248.281 568.641C259.922 558.094 263.047 552.82 263.047 546.375C263.047 536.57 255 529.656 242.891 529.656C230.977 529.656 222.773 536.727 222.812 547.781H233.984C233.945 542.352 237.422 538.992 242.734 539.031C247.93 538.992 251.719 542.117 251.719 547.156C251.719 551.648 248.867 554.773 243.594 559.812L223.281 578.484L223.359 587Z" fill="black"/>
</svg>
