<svg width="1150" height="686" viewBox="0 0 1150 686" fill="none" xmlns="http://www.w3.org/2000/svg">
<path d="M0 37C0 16.5655 16.5655 0 37 0H1113C1133.43 0 1150 16.5655 1150 37V554C1150 574.435 1133.43 591 1113 591C1047.86 591 986.833 591 928.625 591C895.794 591 963.592 632.028 958.931 656.985C957.851 662.768 951.594 665.566 945.741 666.157C881.537 672.645 747.127 591 713 591C497.777 591 301.244 591 37.0525 591C16.6179 591 0 574.435 0 554V37Z" fill="#FFB86C"/>
<path d="M4.76562 667H28.75C41.5234 667 48.2422 660.359 48.2812 651.375C48.2422 643.016 42.2266 637.938 35.8594 637.625V637.078C41.6797 635.789 46.0547 631.609 46.0156 624.969C46.0547 616.453 39.7266 610.438 27.2656 610.438H4.76562V667ZM16.4844 657.312V642.156H26.7188C32.5 642.156 36.1328 645.516 36.0938 650.281C36.1328 654.539 33.2031 657.352 26.4062 657.312H16.4844ZM16.4844 634.109V619.969H25.7812C31.1328 619.969 34.1797 622.742 34.1406 626.844C34.1797 631.375 30.4688 634.148 25.5469 634.109H16.4844ZM67.0312 610.438H55.4688V667H67.0312V610.438ZM73.9844 655.125C74.0234 663.523 80 667.82 88.125 667.781C94.4141 667.82 98.4766 665.047 100.547 661.141H100.859V667H111.797V638.406C111.836 628.172 103.086 624.031 93.8281 624.031C82.5781 624.031 76.1719 629.812 75.4688 637.156H86.4844C87.1094 634.266 89.5703 632.508 93.5156 632.469C97.8516 632.508 100.273 634.539 100.312 638.094V641.531C98.5156 641.609 92.8125 641.883 89.7656 642.078C81.6016 642.586 74.0234 645.672 73.9844 655.125ZM85.0781 654.812C85.0781 651.531 87.6172 649.617 91.6406 649.266C93.5938 649.109 98.5547 648.836 100.312 648.758V651.844C100.352 656.336 96.6797 659.773 91.4062 659.812C87.6953 659.773 85.0781 658.055 85.0781 654.812ZM132.188 642.469C132.188 636.883 135.586 633.641 140.469 633.641C145.312 633.641 148.125 636.727 148.125 642V667H159.688V639.969C159.688 630.008 153.867 624.031 145 624.031C138.555 624.031 134.297 627.039 132.344 632H131.875V610.438H120.625V667H132.188V642.469ZM179.688 610.438H166.328L183.75 638.719L166.016 667H179.531L191.25 647.547H191.641L203.359 667H216.953L199.297 638.719L216.562 610.438H203.281L191.641 629.891H191.25L179.688 610.438ZM223.359 667H263.828V657.312H239.688V657L248.281 648.641C259.922 638.094 263.047 632.82 263.047 626.375C263.047 616.57 255 609.656 242.891 609.656C230.977 609.656 222.773 616.727 222.812 627.781H233.984C233.945 622.352 237.422 618.992 242.734 619.031C247.93 618.992 251.719 622.117 251.719 627.156C251.719 631.648 248.867 634.773 243.594 639.812L223.281 658.484L223.359 667Z" fill="black"/>
</svg>
