<svg width="1150" height="646" viewBox="0 0 1150 646" fill="none" xmlns="http://www.w3.org/2000/svg">
<path d="M0 37C0 16.5655 16.5655 0 37 0H1113C1133.43 0 1150 16.5655 1150 37V504C1150 524.435 1133.43 541 1113 541C1047.86 541 986.833 541 928.625 541C895.794 541 963.592 582.028 958.931 606.985C957.851 612.768 951.594 615.566 945.741 616.157C881.537 622.645 747.127 541 713 541C497.777 541 301.244 541 37.0525 541C16.6179 541 0 524.435 0 504V37Z" fill="#FFB86C"/>
<path d="M4.76562 627H28.75C41.5234 627 48.2422 620.359 48.2812 611.375C48.2422 603.016 42.2266 597.938 35.8594 597.625V597.078C41.6797 595.789 46.0547 591.609 46.0156 584.969C46.0547 576.453 39.7266 570.438 27.2656 570.438H4.76562V627ZM16.4844 617.312V602.156H26.7188C32.5 602.156 36.1328 605.516 36.0938 610.281C36.1328 614.539 33.2031 617.352 26.4062 617.312H16.4844ZM16.4844 594.109V579.969H25.7812C31.1328 579.969 34.1797 582.742 34.1406 586.844C34.1797 591.375 30.4688 594.148 25.5469 594.109H16.4844ZM67.0312 570.438H55.4688V627H67.0312V570.438ZM73.9844 615.125C74.0234 623.523 80 627.82 88.125 627.781C94.4141 627.82 98.4766 625.047 100.547 621.141H100.859V627H111.797V598.406C111.836 588.172 103.086 584.031 93.8281 584.031C82.5781 584.031 76.1719 589.812 75.4688 597.156H86.4844C87.1094 594.266 89.5703 592.508 93.5156 592.469C97.8516 592.508 100.273 594.539 100.312 598.094V601.531C98.5156 601.609 92.8125 601.883 89.7656 602.078C81.6016 602.586 74.0234 605.672 73.9844 615.125ZM85.0781 614.812C85.0781 611.531 87.6172 609.617 91.6406 609.266C93.5938 609.109 98.5547 608.836 100.312 608.758V611.844C100.352 616.336 96.6797 619.773 91.4062 619.812C87.6953 619.773 85.0781 618.055 85.0781 614.812ZM132.188 602.469C132.188 596.883 135.586 593.641 140.469 593.641C145.312 593.641 148.125 596.727 148.125 602V627H159.688V599.969C159.688 590.008 153.867 584.031 145 584.031C138.555 584.031 134.297 587.039 132.344 592H131.875V570.438H120.625V627H132.188V602.469ZM179.688 570.438H166.328L183.75 598.719L166.016 627H179.531L191.25 607.547H191.641L203.359 627H216.953L199.297 598.719L216.562 570.438H203.281L191.641 589.891H191.25L179.688 570.438ZM223.359 627H263.828V617.312H239.688V617L248.281 608.641C259.922 598.094 263.047 592.82 263.047 586.375C263.047 576.57 255 569.656 242.891 569.656C230.977 569.656 222.773 576.727 222.812 587.781H233.984C233.945 582.352 237.422 578.992 242.734 579.031C247.93 578.992 251.719 582.117 251.719 587.156C251.719 591.648 248.867 594.773 243.594 599.812L223.281 618.484L223.359 627Z" fill="black"/>
</svg>
